<svg width="30" height="26" viewBox="0 0 30 26" fill="none" xmlns="http://www.w3.org/2000/svg">
<path d="M10.5 0H19.5L22.5 2.88889H28.5C29.3285 2.88889 30 3.5356 30 4.33333V24.5556C30 25.3533 29.3285 26 28.5 26H1.5C0.67158 26 0 25.3533 0 24.5556V4.33333C0 3.5356 0.67158 2.88889 1.5 2.88889H7.5L10.5 0ZM15 23.1111C19.9705 23.1111 24 19.2309 24 14.4444C24 9.65798 19.9705 5.77778 15 5.77778C10.0294 5.77778 6 9.65798 6 14.4444C6 19.2309 10.0294 23.1111 15 23.1111ZM15 20.2222C11.6863 20.2222 9 17.6354 9 14.4444C9 11.2535 11.6863 8.66667 15 8.66667C18.3136 8.66667 21 11.2535 21 14.4444C21 17.6354 18.3136 20.2222 15 20.2222Z" fill="black"/>
</svg>
