<svg width="20" height="20" viewBox="0 0 20 20" fill="none" xmlns="http://www.w3.org/2000/svg">
<path d="M5.18452 5.1777C6.60272 4.25613 8.24604 3.57141 9.99999 3.57141C13.9857 3.57141 17.4 7.10717 18.9 8.92327C19.1369 9.21858 19.268 9.60225 19.268 10.0001C19.268 10.3979 19.1369 10.7816 18.9 11.0769C18.0732 12.0779 16.6646 13.6015 14.8995 14.7674M12.1429 16.0996C11.4537 16.308 10.7366 16.4287 9.99999 16.4287C6.01428 16.4287 2.59999 12.893 1.09999 11.0769C0.863075 10.7816 0.731934 10.3979 0.731934 10.0001C0.731934 9.60225 0.863075 9.21858 1.09999 8.92327C1.57524 8.34787 2.24263 7.59985 3.05949 6.84637" stroke="#C90F38" stroke-linecap="round" stroke-linejoin="round"/>
<path d="M12.0203 12.0204C13.1361 10.9046 13.1361 9.09556 12.0203 7.97977C10.9046 6.864 9.09552 6.864 7.97974 7.97977" stroke="#C90F38" stroke-linecap="round" stroke-linejoin="round"/>
<path d="M19.2857 19.2857L0.714294 0.714294" stroke="#C90F38" stroke-linecap="round" stroke-linejoin="round"/>
</svg>
