<svg width="20" height="20" viewBox="0 0 20 20" fill="none" xmlns="http://www.w3.org/2000/svg">
<path d="M5.1844 5.1777C6.6026 4.25613 8.24591 3.57141 9.99987 3.57141C13.9856 3.57141 17.3999 7.10717 18.8999 8.92327C19.1368 9.21858 19.2679 9.60225 19.2679 10.0001C19.2679 10.3979 19.1368 10.7816 18.8999 11.0769C18.0731 12.0779 16.6645 13.6015 14.8993 14.7674M12.1427 16.0996C11.4536 16.308 10.7365 16.4287 9.99987 16.4287C6.01416 16.4287 2.59987 12.893 1.09987 11.0769C0.862953 10.7816 0.731812 10.3979 0.731812 10.0001C0.731812 9.60225 0.862953 9.21858 1.09987 8.92327C1.57511 8.34787 2.24251 7.59985 3.05937 6.84637" stroke="#81C784" stroke-linecap="round" stroke-linejoin="round"/>
<path d="M12.0202 12.0204C13.136 10.9046 13.136 9.09556 12.0202 7.97977C10.9044 6.864 9.0954 6.864 7.97961 7.97977" stroke="#81C784" stroke-linecap="round" stroke-linejoin="round"/>
<path d="M19.2857 19.2857L0.714233 0.714294" stroke="#81C784" stroke-linecap="round" stroke-linejoin="round"/>
</svg>
