<svg width="20" height="20" viewBox="0 0 20 20" fill="none" xmlns="http://www.w3.org/2000/svg">
<g clip-path="url(#clip0_2006_141)">
<path d="M5.18449 5.17771C6.60269 4.25614 8.246 3.57143 9.99996 3.57143C13.9857 3.57143 17.4 7.10718 18.9 8.92328C19.1369 9.2186 19.268 9.60227 19.268 10.0001C19.268 10.3979 19.1369 10.7816 18.9 11.0769C18.0731 12.078 16.6646 13.6015 14.8994 14.7674M12.1428 16.0996C11.4537 16.308 10.7366 16.4287 9.99996 16.4287C6.01425 16.4287 2.59996 12.893 1.09996 11.0769C0.863044 10.7816 0.731903 10.3979 0.731903 10.0001C0.731903 9.60227 0.863044 9.2186 1.09996 8.92328C1.5752 8.34788 2.2426 7.59987 3.05946 6.84638" stroke="black" stroke-linecap="round" stroke-linejoin="round"/>
<path d="M12.0203 12.0204C13.1361 10.9046 13.1361 9.09554 12.0203 7.97976C10.9045 6.86399 9.09549 6.86399 7.97971 7.97976" stroke="black" stroke-linecap="round" stroke-linejoin="round"/>
<path d="M19.2857 19.2857L0.714294 0.714279" stroke="black" stroke-linecap="round" stroke-linejoin="round"/>
</g>
<defs>
<clipPath id="clip0_2006_141">
<rect width="20" height="20" fill="white"/>
</clipPath>
</defs>
</svg>
