<svg width="20" height="20" viewBox="0 0 20 20" fill="none" xmlns="http://www.w3.org/2000/svg">
<path d="M18.9 8.92328C19.1369 9.2186 19.268 9.60227 19.268 10.0001C19.268 10.3979 19.1369 10.7816 18.9 11.0769C17.4 12.893 13.9857 16.4287 9.99999 16.4287C6.01428 16.4287 2.59999 12.893 1.09999 11.0769C0.863075 10.7816 0.731934 10.3979 0.731934 10.0001C0.731934 9.60227 0.863075 9.2186 1.09999 8.92328C2.59999 7.10718 6.01428 3.57143 9.99999 3.57143C13.9857 3.57143 17.4 7.10718 18.9 8.92328Z" stroke="black" stroke-linecap="round" stroke-linejoin="round"/>
<path d="M10 12.8571C11.578 12.8571 12.8572 11.578 12.8572 10C12.8572 8.42204 11.578 7.14285 10 7.14285C8.42207 7.14285 7.14288 8.42204 7.14288 10C7.14288 11.578 8.42207 12.8571 10 12.8571Z" stroke="black" stroke-linecap="round" stroke-linejoin="round"/>
</svg>
