<svg width="20" height="14" viewBox="0 0 20 14" fill="none" xmlns="http://www.w3.org/2000/svg">
<path d="M18.9 5.92327C19.1369 6.21858 19.268 6.60225 19.268 7.00007C19.268 7.39788 19.1369 7.78155 18.9 8.07687C17.4 9.89297 13.9857 13.4287 9.99999 13.4287C6.01428 13.4287 2.59999 9.89297 1.09999 8.07687C0.863075 7.78155 0.731934 7.39788 0.731934 7.00007C0.731934 6.60225 0.863075 6.21858 1.09999 5.92327C2.59999 4.10717 6.01428 0.571411 9.99999 0.571411C13.9857 0.571411 17.4 4.10717 18.9 5.92327Z" stroke="#81C784" stroke-linecap="round" stroke-linejoin="round"/>
<path d="M10.0001 9.85711C11.578 9.85711 12.8572 8.57792 12.8572 6.99997C12.8572 5.42201 11.578 4.14282 10.0001 4.14282C8.42213 4.14282 7.14294 5.42201 7.14294 6.99997C7.14294 8.57792 8.42213 9.85711 10.0001 9.85711Z" stroke="#81C784" stroke-linecap="round" stroke-linejoin="round"/>
</svg>
