<svg width="20" height="14" viewBox="0 0 20 14" fill="none" xmlns="http://www.w3.org/2000/svg">
<path d="M18.9 5.92327C19.1368 6.21858 19.268 6.60225 19.268 7.00007C19.268 7.39788 19.1368 7.78155 18.9 8.07687C17.4 9.89297 13.9856 13.4287 9.99993 13.4287C6.01422 13.4287 2.59993 9.89297 1.09993 8.07687C0.863014 7.78155 0.731873 7.39788 0.731873 7.00007C0.731873 6.60225 0.863014 6.21858 1.09993 5.92327C2.59993 4.10717 6.01422 0.571411 9.99993 0.571411C13.9856 0.571411 17.4 4.10717 18.9 5.92327Z" stroke="#C90F38" stroke-linecap="round" stroke-linejoin="round"/>
<path d="M9.99997 9.85711C11.5779 9.85711 12.8571 8.57792 12.8571 6.99997C12.8571 5.42201 11.5779 4.14282 9.99997 4.14282C8.42201 4.14282 7.14282 5.42201 7.14282 6.99997C7.14282 8.57792 8.42201 9.85711 9.99997 9.85711Z" stroke="#C90F38" stroke-linecap="round" stroke-linejoin="round"/>
</svg>
