<svg width="44" height="48" viewBox="0 0 44 48" fill="none" xmlns="http://www.w3.org/2000/svg">
<path d="M40.48 47.5197H3.52002C3.03622 47.5261 2.55712 47.4244 2.11762 47.2224C1.67802 47.0201 1.28912 46.7225 0.979024 46.3511C0.296524 45.5353 0.0214243 44.4212 0.225124 43.2946C1.11132 38.3785 3.87702 34.2488 8.22412 31.3497C12.086 28.7763 16.9779 27.3598 22 27.3598C27.0221 27.3598 31.9141 28.7773 35.776 31.3497C40.123 34.2478 42.8887 38.3774 43.7749 43.2936C43.9786 44.4202 43.7035 45.5343 43.021 46.3501C42.7111 46.7217 42.3221 47.0194 41.8826 47.2218C41.443 47.4241 40.9639 47.526 40.48 47.5197Z" fill="#8A8A8A"/>
<path d="M30.048 3.90088C28.0046 1.69488 25.1507 0.47998 22.0008 0.47998C18.8339 0.47998 15.9706 1.68748 13.9368 3.87988C11.8809 6.09638 10.8792 9.10878 11.1144 12.3618C11.5805 18.7794 16.4641 24 22.0008 24C27.5373 24 32.4125 18.7804 32.8861 12.3639C33.1244 9.14038 32.1164 6.13418 30.048 3.90088Z" fill="#8A8A8A"/>
</svg>
